# xmcd CD database file
#
# Track frame offsets:
#	150
#	22652
#	34279
#	54381
#	71183
#	90085
#	115287
#	130664
#	153916
#	171393
#	193820
#	216622
#
# Disc length: 3082 seconds
#
# Revision: 0
# Processed by: cddbd v1.5.2PL0 Copyright (c) Steve Scherf et al.
# Submitted via: CDex 1.51
#
DISCID=a40c080c
DTITLE=Slim Jones - Texas In September
DYEAR=2010
DGENRE=Country
TTITLE0=Texas In September
TTITLE1=Old Boney
TTITLE2=Murranji Memories
TTITLE3=My Old Hat
TTITLE4=He Wanted Whiskey She Wanted Love
TTITLE5=Little Emma
TTITLE6=Marble Bar
TTITLE7=Ava Maria Morales
TTITLE8=In A Bar In Charters towers
TTITLE9=Don't Forget To Meet Me
TTITLE10=If Anybody Loves Me
TTITLE11=After Dark
EXTD=YEAR: 2010
EXTT0=
EXTT1=
EXTT2=
EXTT3=
EXTT4=
EXTT5=
EXTT6=
EXTT7=
EXTT8=
EXTT9=
EXTT10=
EXTT11=
PLAYORDER=
